<svg xmlns="http://www.w3.org/2000/svg" viewBox="0 0 1200 900" width="1200" height="900" role="img" aria-hidden="true">
  <defs>
    <radialGradient id="glow" cx="50%" cy="38%" r="70%">
      <stop offset="0%" stop-color="#1d1d1d"/>
      <stop offset="55%" stop-color="#101010"/>
      <stop offset="100%" stop-color="#0a0a0a"/>
    </radialGradient>
    <linearGradient id="vg" x1="0" y1="0" x2="0" y2="1">
      <stop offset="0%" stop-color="#ffffff" stop-opacity="0.10"/>
      <stop offset="100%" stop-color="#ffffff" stop-opacity="0"/>
    </linearGradient>
  </defs>
  <rect width="1200" height="900" fill="url(#glow)"/>
  <rect x="280" y="300" width="260" height="90" rx="20" fill="#151515" stroke="#e5e5e5" stroke-width="3" />
  <line x1="320" y1="332" x2="420" y2="332" stroke="#9c9c9c" stroke-width="7" stroke-linecap="round"/>
  <line x1="320" y1="356" x2="420" y2="356" stroke="#9c9c9c" stroke-width="7" stroke-linecap="round"/>
  <rect x="280" y="470" width="260" height="90" rx="20" fill="#151515" stroke="#2e2e2e" stroke-width="2" />
  <line x1="320" y1="502" x2="420" y2="502" stroke="#4a4a4a" stroke-width="7" stroke-linecap="round"/>
  <line x1="320" y1="526" x2="420" y2="526" stroke="#4a4a4a" stroke-width="7" stroke-linecap="round"/>
  <rect x="280" y="640" width="260" height="90" rx="20" fill="#151515" stroke="#2e2e2e" stroke-width="2" />
  <line x1="320" y1="672" x2="420" y2="672" stroke="#4a4a4a" stroke-width="7" stroke-linecap="round"/>
  <line x1="320" y1="696" x2="420" y2="696" stroke="#4a4a4a" stroke-width="7" stroke-linecap="round"/>
  <line x1="410" y1="390" x2="410" y2="470" stroke="#e5e5e5" stroke-width="4"/>
  <polygon points="410,480 400,462 420,462" fill="#e5e5e5"/>
  <line x1="410" y1="560" x2="410" y2="640" stroke="#4a4a4a" stroke-width="4"/>
  <polygon points="410,650 400,632 420,632" fill="#4a4a4a"/>
  <rect x="700" y="330" width="200" height="70" rx="16" fill="#121212" stroke="#2e2e2e" stroke-width="2" />
  <rect x="700" y="420" width="200" height="70" rx="16" fill="#121212" stroke="#2e2e2e" stroke-width="2" />
  <line x1="540" y1="345" x2="700" y2="365" stroke="#4a4a4a" stroke-width="3"/>
  <line x1="540" y1="345" x2="700" y2="455" stroke="#4a4a4a" stroke-width="3"/>
  <line x1="730" y1="356" x2="820" y2="356" stroke="#6b6b6b" stroke-width="7" stroke-linecap="round"/>
  <line x1="730" y1="446" x2="820" y2="446" stroke="#6b6b6b" stroke-width="7" stroke-linecap="round"/>
  <rect x="960" y="370" width="60" height="60" rx="30" fill="#ffffff" stroke="#2e2e2e" stroke-width="2" />
  <rect width="1200" height="900" fill="url(#vg)"/>
</svg>